<svg width="40" height="39" viewBox="0 0 40 39" fill="none" xmlns="http://www.w3.org/2000/svg">
<path d="M37.6152 4.97817L39.0214 3.53287C39.6856 2.82975 39.6856 1.89224 39.0214 1.24771L38.5722 0.778959C37.9668 0.173491 37.0098 0.251615 36.3652 0.876615L34.9394 2.28287L37.6152 4.97817ZM14.1191 26.2868L17.9277 24.6266L36.17 6.40397L33.4942 3.76725L15.2715 21.9898L13.5137 25.6618C13.3574 25.9938 13.748 26.443 14.1191 26.2868ZM7.00976 38.943H29.9394C33.455 38.943 35.4864 36.9118 35.4864 32.8884V12.0094L32.3418 15.154V32.732C32.3418 34.7634 31.248 35.7984 29.9004 35.7984H7.06836C5.11524 35.7984 4.02148 34.7634 4.02148 32.732V10.5641C4.02148 8.53287 5.11524 7.47817 7.06836 7.47817H24.8614L28.0058 4.33365H7.00976C2.94726 4.33365 0.876953 6.36489 0.876953 10.3883V32.8884C0.876953 36.9312 2.94726 38.943 7.00976 38.943Z" fill="#9A9A9A"/>
</svg>
